<svg xmlns="http://www.w3.org/2000/svg" width="85.039" height="85.04" viewBox="0 0 85.039 85.04"><path d="M73.384 65.35a38.217 38.217 0 0 0 7.543-22.83c0-21.178-17.229-38.406-38.408-38.406-21.177 0-38.406 17.229-38.406 38.406a38.193 38.193 0 0 0 7.561 22.854c.038.06.077.115.124.169 7.013 9.335 18.174 15.385 30.721 15.385 12.58 0 23.766-6.078 30.773-15.45.035-.042.062-.085.092-.128zM42.519 7.171c19.492 0 35.35 15.857 35.35 35.349a35.136 35.136 0 0 1-5.783 19.346 14.558 14.558 0 0 0-9.5-5.107c-.096-.01-9.176-.972-12.531-7.56 6.549-4.411 7.045-15.118 7.029-18.448-.047-8.883-6.027-15.068-14.553-15.068h-.08c-4.018.019-7.667 1.453-10.272 4.039-2.785 2.762-4.244 6.623-4.221 11.166.031 6.71 2.353 14.63 7.427 18.108-3.425 6.576-12.604 7.424-12.725 7.435-3.734.363-7.276 2.396-9.708 5.428A35.125 35.125 0 0 1 7.17 42.52c0-19.492 15.858-35.349 35.349-35.349zm0 70.698c-11.212 0-21.215-5.254-27.695-13.422 1.914-2.781 4.939-4.663 8.104-4.971.49-.04 12.046-1.056 15.748-10.278.092-.228.109-.461.092-.689a1.522 1.522 0 0 0-.818-1.528c-4.724-2.396-6.906-10.028-6.934-16.107-.019-3.705 1.128-6.811 3.317-8.982 2.033-2.018 4.921-3.138 8.132-3.152h.068c6.84 0 11.455 4.826 11.492 12.025.031 6.339-1.668 13.976-6.525 16.406a1.517 1.517 0 0 0-.824 1.521c-.02.223 0 .452.086.676 3.596 9.188 15.047 10.386 15.504 10.432a11.436 11.436 0 0 1 7.961 4.638c-6.484 8.172-16.49 13.431-27.708 13.431z"/></svg>